<?xml version="1.0" standalone="no"?>
<!DOCTYPE svg PUBLIC "-//W3C//DTD SVG 20010904//EN"
 "http://www.w3.org/TR/2001/REC-SVG-20010904/DTD/svg10.dtd">
<svg version="1.0" xmlns="http://www.w3.org/2000/svg"
 width="755.000000pt" height="112.000000pt" viewBox="0 0 755.000000 112.000000"
 preserveAspectRatio="xMidYMid meet">
<metadata>
Created by potrace 1.15, written by Peter Selinger 2001-2017
</metadata>
<g transform="translate(0.000000,112.000000) scale(0.100000,-0.100000)"
fill="#000000" stroke="none">
<path d="M10 995 l0 -105 170 0 170 0 0 -440 0 -440 140 0 140 0 0 440 0 440
170 0 170 0 0 105 0 105 -480 0 -480 0 0 -105z"/>
<path d="M1140 990 l0 -110 400 0 400 0 0 110 0 110 -400 0 -400 0 0 -110z"/>
<path d="M2160 556 l0 -546 140 0 140 0 0 200 0 200 68 -1 67 0 147 -200 148
-199 425 0 425 0 0 210 0 210 -41 0 c-29 0 -40 4 -37 14 9 38 124 366 128 366
4 0 119 -328 128 -366 3 -10 -8 -14 -37 -14 l-41 0 0 -210 0 -210 425 0 425 0
148 199 147 200 68 0 67 1 0 -200 0 -200 140 0 140 0 0 546 0 546 -312 -4
c-362 -6 -406 -13 -492 -89 -72 -64 -90 -107 -91 -214 0 -79 4 -97 28 -147 29
-59 88 -118 145 -146 17 -9 32 -20 32 -25 0 -7 -250 -335 -347 -456 -1 -2 -6
-2 -9 2 -3 3 -95 246 -203 539 l-197 533 -164 0 -164 0 -197 -533 c-108 -293
-200 -536 -203 -539 -3 -4 -8 -4 -9 -2 -97 121 -347 449 -347 456 0 5 15 16
33 25 56 28 115 87 144 146 24 50 28 68 28 147 -1 107 -19 150 -91 214 -86 76
-130 83 -491 89 l-313 4 0 -546z m534 330 c51 -21 76 -60 76 -120 0 -112 -63
-155 -227 -156 l-103 0 0 145 0 145 110 0 c71 0 122 -5 144 -14z m2406 -131
l0 -145 -102 0 c-121 0 -176 19 -208 72 -28 46 -27 126 2 163 34 44 71 54 196
55 l112 0 0 -145z"/>
<path d="M5600 990 l0 -110 400 0 400 0 0 110 0 110 -400 0 -400 0 0 -110z"/>
<path d="M6570 995 l0 -105 170 0 170 0 0 -440 0 -440 140 0 140 0 0 440 0
440 170 0 170 0 0 105 0 105 -480 0 -480 0 0 -105z"/>
<path d="M1140 555 l0 -115 400 0 400 0 0 115 0 115 -400 0 -400 0 0 -115z"/>
<path d="M5600 555 l0 -115 400 0 400 0 0 115 0 115 -400 0 -400 0 0 -115z"/>
<path d="M1140 120 l0 -110 400 0 400 0 0 110 0 110 -400 0 -400 0 0 -110z"/>
<path d="M5600 120 l0 -110 400 0 400 0 0 110 0 110 -400 0 -400 0 0 -110z"/>
</g>
</svg>
